<?xml version="1.0" encoding="UTF-8" standalone="no"?>
<!-- Created with Inkscape (http://www.inkscape.org/) -->

<svg
   width="297mm"
   height="210mm"
   viewBox="0 0 297 210"
   version="1.1"
   id="svg5"
   inkscape:version="1.2 (dc2aeda, 2022-05-15)"
   xmlns:inkscape="http://www.inkscape.org/namespaces/inkscape"
   xmlns:sodipodi="http://sodipodi.sourceforge.net/DTD/sodipodi-0.dtd"
   xmlns="http://www.w3.org/2000/svg"
   xmlns:svg="http://www.w3.org/2000/svg">
  <sodipodi:namedview
     id="namedview7"
     pagecolor="#ffffff"
     bordercolor="#666666"
     borderopacity="1.0"
     inkscape:showpageshadow="2"
     inkscape:pageopacity="0.0"
     inkscape:pagecheckerboard="false"
     inkscape:deskcolor="#d1d1d1"
     inkscape:document-units="mm"
     showgrid="false"
     inkscape:zoom="0.84096521"
     inkscape:cx="482.77859"
     inkscape:cy="418.56666"
     inkscape:window-width="1920"
     inkscape:window-height="1050"
     inkscape:window-x="0"
     inkscape:window-y="0"
     inkscape:window-maximized="1"
     inkscape:current-layer="layer1" />
  <defs
     id="defs2">
    <inkscape:path-effect
       effect="fillet_chamfer"
       id="path-effect1408"
       is_visible="true"
       lpeversion="1"
       nodesatellites_param="F,0,0,1,0,1.3229167,0,1 @ F,0,0,1,0,1.3229167,0,1 @ F,0,0,1,0,1.3229167,0,1 @ F,0,0,1,0,1.3229167,0,1 @ F,0,0,1,0,1.3229167,0,1 @ F,0,0,1,0,1.3229167,0,1 @ F,0,0,1,0,1.3229167,0,1 @ F,0,0,1,0,1.3229167,0,1"
       unit="px"
       method="auto"
       mode="F"
       radius="5"
       chamfer_steps="1"
       flexible="false"
       use_knot_distance="true"
       apply_no_radius="true"
       apply_with_radius="true"
       only_selected="false"
       hide_knots="false" />
    <inkscape:path-effect
       effect="fillet_chamfer"
       id="path-effect1361"
       is_visible="true"
       lpeversion="1"
       nodesatellites_param="F,0,0,1,0,1.3229167,0,1 @ F,0,0,1,0,1.3229167,0,1 @ F,0,0,1,0,1.3229167,0,1 @ F,0,0,1,0,1.3229167,0,1 @ F,0,0,1,0,1.3229167,0,1 @ F,0,0,1,0,1.3229167,0,1 @ F,0,0,1,0,1.3229167,0,1 @ F,0,0,1,0,1.3229167,0,1 | F,0,0,1,0,1.3229167,0,1 @ F,0,0,1,0,1.3229167,0,1 @ F,0,0,1,0,1.3229167,0,1 @ F,0,0,1,0,1.3229167,0,1"
       unit="px"
       method="auto"
       mode="F"
       radius="5"
       chamfer_steps="1"
       flexible="false"
       use_knot_distance="true"
       apply_no_radius="true"
       apply_with_radius="true"
       only_selected="false"
       hide_knots="false" />
    <inkscape:path-effect
       effect="fillet_chamfer"
       id="path-effect1242"
       is_visible="true"
       lpeversion="1"
       nodesatellites_param="F,0,0,1,0,1.3229167,0,1 @ F,0,0,1,0,1.3229167,0,1 @ F,0,0,1,0,1.3229167,0,1 @ F,0,0,1,0,1.3229167,0,1 @ F,0,0,1,0,1.3229167,0,1 @ F,0,0,1,0,1.3229167,0,1 @ F,0,0,1,0,1.3229167,0,1 @ F,0,0,1,0,1.3229167,0,1"
       unit="px"
       method="auto"
       mode="F"
       radius="5"
       chamfer_steps="1"
       flexible="false"
       use_knot_distance="true"
       apply_no_radius="true"
       apply_with_radius="true"
       only_selected="false"
       hide_knots="false" />
    <inkscape:path-effect
       effect="fillet_chamfer"
       id="path-effect1097"
       is_visible="true"
       lpeversion="1"
       nodesatellites_param="F,0,0,1,0,1.3229167,0,1 @ F,0,0,1,0,1.3229167,0,1 @ F,0,0,1,0,1.3229167,0,1 @ F,0,0,1,0,1.3229167,0,1 | F,0,0,1,0,1.3229167,0,1 @ F,0,0,1,0,1.3229167,0,1 @ F,0,0,1,0,1.3229167,0,1 @ F,0,0,1,0,1.3229167,0,1"
       unit="px"
       method="auto"
       mode="F"
       radius="5"
       chamfer_steps="1"
       flexible="false"
       use_knot_distance="true"
       apply_no_radius="true"
       apply_with_radius="true"
       only_selected="false"
       hide_knots="false" />
    <inkscape:path-effect
       effect="fillet_chamfer"
       id="path-effect1050"
       is_visible="true"
       lpeversion="1"
       nodesatellites_param="F,0,0,1,0,1.3229167,0,1 @ F,0,0,1,0,1.3229167,0,1 @ F,0,0,1,0,1.3229167,0,1 @ F,0,0,1,0,1.3229167,0,1 @ F,0,0,1,0,1.3229167,0,1 @ F,0,0,1,0,1.3229167,0,1 @ F,0,0,1,0,1.3229167,0,1 @ F,0,0,1,0,1.3229167,0,1 @ F,0,0,1,0,1.3229167,0,1 @ F,0,0,1,0,1.3229167,0,1 @ F,0,0,1,0,1.3229167,0,1 @ F,0,0,1,0,1.3229167,0,1"
       unit="px"
       method="auto"
       mode="F"
       radius="5"
       chamfer_steps="1"
       flexible="false"
       use_knot_distance="true"
       apply_no_radius="true"
       apply_with_radius="true"
       only_selected="false"
       hide_knots="false" />
    <inkscape:path-effect
       effect="fillet_chamfer"
       id="path-effect958"
       is_visible="true"
       lpeversion="1"
       nodesatellites_param="F,0,0,1,0,1.3229167,0,1 @ F,0,0,1,0,1.3229167,0,1 @ F,0,0,1,0,1.3229167,0,1 @ F,0,0,1,0,1.3229167,0,1 @ F,0,0,1,0,1.3229167,0,1 @ F,0,0,1,0,1.3229167,0,1 @ F,0,0,1,0,1.3229167,0,1 @ F,0,0,1,0,1.3229167,0,1 @ F,0,0,1,0,1.3229167,0,1 @ F,0,0,1,0,1.3229167,0,1 @ F,0,0,1,0,1.3229167,0,1 @ F,0,0,1,0,1.3229167,0,1 @ F,0,0,1,0,1.3229167,0,1 @ F,0,0,1,0,1.3229167,0,1 @ F,0,0,1,0,1.3229167,0,1 @ F,0,0,1,0,1.3229167,0,1"
       unit="px"
       method="auto"
       mode="F"
       radius="5"
       chamfer_steps="1"
       flexible="false"
       use_knot_distance="true"
       apply_no_radius="true"
       apply_with_radius="true"
       only_selected="false"
       hide_knots="false" />
    <inkscape:path-effect
       effect="fillet_chamfer"
       id="path-effect7675-9-4-3-9"
       is_visible="true"
       lpeversion="1"
       satellites_param="F,0,0,1,0,0.26458333,0,1 @ F,0,0,1,0,0.26458333,0,1 @ F,0,0,1,0,0.26458333,0,1 @ F,0,0,1,0,0.26458333,0,1 @ F,0,0,1,0,0.26458333,0,1 @ F,0,0,1,0,0.26458333,0,1 @ F,0,0,1,0,0.26458333,0,1 @ F,0,0,1,0,0.26458333,0,1 @ F,0,0,1,0,0.26458333,0,1 @ F,0,0,1,0,0.26458333,0,1 @ F,0,0,1,0,0.26458333,0,1 @ F,0,0,1,0,0.26458333,0,1 @ F,0,0,1,0,0.26458333,0,1 @ F,0,0,1,0,0.26458333,0,1 @ F,0,0,1,0,0.26458333,0,1 @ F,0,0,1,0,0.26458333,0,1 @ F,0,0,1,0,0.26458333,0,1 @ F,0,0,1,0,0.26458333,0,1 @ F,0,0,1,0,0.26458333,0,1 @ F,0,0,1,0,0.26458333,0,1 @ F,0,0,1,0,0.26458333,0,1 @ F,0,0,1,0,0.26458333,0,1 | F,0,0,1,0,0.26458333,0,1 @ F,0,0,1,0,0.26458333,0,1 @ F,0,0,1,0,0.26458333,0,1 @ F,0,0,1,0,0.26458333,0,1 @ F,0,0,1,0,0.26458333,0,1 @ F,0,0,1,0,0.26458333,0,1 @ F,0,0,1,0,0.26458333,0,1 @ F,0,0,1,0,0.26458333,0,1"
       unit="px"
       method="auto"
       mode="F"
       radius="1"
       chamfer_steps="1"
       flexible="false"
       use_knot_distance="true"
       apply_no_radius="true"
       apply_with_radius="true"
       only_selected="false"
       hide_knots="false"
       nodesatellites_param="F,0,0,1,0,0.26458333,0,1 @ F,0,0,1,0,0.26458333,0,1 @ F,0,0,1,0,0.26458333,0,1 @ F,0,0,1,0,0.26458333,0,1 @ F,0,0,1,0,0.26458333,0,1 @ F,0,0,1,0,0.26458333,0,1 @ F,0,0,1,0,0.26458333,0,1 @ F,0,0,1,0,0.26458333,0,1 @ F,0,0,1,0,0.26458333,0,1 @ F,0,0,1,0,0.26458333,0,1 @ F,0,0,1,0,0.26458333,0,1 @ F,0,0,1,0,0.26458333,0,1 @ F,0,0,1,0,0.26458333,0,1 @ F,0,0,1,0,0.26458333,0,1 @ F,0,0,1,0,0.26458333,0,1 @ F,0,0,1,0,0.26458333,0,1 @ F,0,0,1,0,0.26458333,0,1 @ F,0,0,1,0,0.26458333,0,1 @ F,0,0,1,0,0.26458333,0,1 @ F,0,0,1,0,0.26458333,0,1 @ F,0,0,1,0,0.26458333,0,1 @ F,0,0,1,0,0.26458333,0,1 | F,0,0,1,0,0.26458333,0,1 @ F,0,0,1,0,0.26458333,0,1 @ F,0,0,1,0,0.26458333,0,1 @ F,0,0,1,0,0.26458333,0,1 @ F,0,0,1,0,0.26458333,0,1 @ F,0,0,1,0,0.26458333,0,1 @ F,0,0,1,0,0.26458333,0,1 @ F,0,0,1,0,0.26458333,0,1" />
    <inkscape:path-effect
       effect="fillet_chamfer"
       id="path-effect7415-4-8-4-6"
       is_visible="true"
       lpeversion="1"
       satellites_param="F,0,0,1,0,0.26458333,0,1 @ F,0,0,1,0,0.26458333,0,1 @ F,0,0,1,0,0.26458333,0,1 @ F,0,0,1,0,0.26458333,0,1 @ F,0,0,1,0,0.26458333,0,1 @ F,0,0,1,0,0.26458333,0,1 @ F,0,0,1,0,0.26458333,0,1 @ F,0,0,1,0,0.26458333,0,1 @ F,0,0,1,0,0.26458333,0,1 @ F,0,0,1,0,0.26458333,0,1 @ F,0,0,1,0,0.26458333,0,1 @ F,0,0,1,0,0.26458333,0,1 @ F,0,0,1,0,0.26458333,0,1 @ F,0,0,1,0,0.26458333,0,1 @ F,0,0,1,0,0.26458333,0,1 @ F,0,0,1,0,0.26458333,0,1 @ F,0,0,1,0,0.26458333,0,1 @ F,0,0,1,0,0.26458333,0,1 @ F,0,0,1,0,0.26458333,0,1 @ F,0,0,1,0,0.26458333,0,1"
       unit="px"
       method="auto"
       mode="F"
       radius="1"
       chamfer_steps="1"
       flexible="false"
       use_knot_distance="true"
       apply_no_radius="true"
       apply_with_radius="true"
       only_selected="false"
       hide_knots="false"
       nodesatellites_param="F,0,0,1,0,0.26458333,0,1 @ F,0,0,1,0,0.26458333,0,1 @ F,0,0,1,0,0.26458333,0,1 @ F,0,0,1,0,0.26458333,0,1 @ F,0,0,1,0,0.26458333,0,1 @ F,0,0,1,0,0.26458333,0,1 @ F,0,0,1,0,0.26458333,0,1 @ F,0,0,1,0,0.26458333,0,1 @ F,0,0,1,0,0.26458333,0,1 @ F,0,0,1,0,0.26458333,0,1 @ F,0,0,1,0,0.26458333,0,1 @ F,0,0,1,0,0.26458333,0,1 @ F,0,0,1,0,0.26458333,0,1 @ F,0,0,1,0,0.26458333,0,1 @ F,0,0,1,0,0.26458333,0,1 @ F,0,0,1,0,0.26458333,0,1 @ F,0,0,1,0,0.26458333,0,1 @ F,0,0,1,0,0.26458333,0,1 @ F,0,0,1,0,0.26458333,0,1 @ F,0,0,1,0,0.26458333,0,1" />
    <inkscape:path-effect
       effect="fillet_chamfer"
       id="path-effect7654-5-1-4-5"
       is_visible="true"
       lpeversion="1"
       satellites_param="F,0,0,1,0,0.26458333,0,1 @ F,0,0,1,0,0.26458333,0,1 @ F,0,0,1,0,0.26458333,0,1 @ F,0,0,1,0,0.26458333,0,1 @ F,0,0,1,0,0.26458333,0,1 @ F,0,0,1,0,0.26458333,0,1 @ F,0,0,1,0,0.26458333,0,1 @ F,0,0,1,0,0.26458333,0,1 @ F,0,0,1,0,0.26458333,0,1 @ F,0,0,1,0,0.26458333,0,1 @ F,0,0,1,0,0.26458333,0,1 @ F,0,0,1,0,0.26458333,0,1 @ F,0,0,1,0,0.26458333,0,1 @ F,0,0,1,0,0.26458333,0,1 | F,0,0,1,0,0.26458333,0,1 @ F,0,0,1,0,0.26458333,0,1 @ F,0,0,1,0,0.26458333,0,1 @ F,0,0,1,0,0.26458333,0,1 @ F,0,0,1,0,0.26458333,0,1 @ F,0,0,1,0,0.26458333,0,1 @ F,0,0,1,0,0.26458333,0,1 @ F,0,0,1,0,0.26458333,0,1"
       unit="px"
       method="auto"
       mode="F"
       radius="1"
       chamfer_steps="1"
       flexible="false"
       use_knot_distance="true"
       apply_no_radius="true"
       apply_with_radius="true"
       only_selected="false"
       hide_knots="false"
       nodesatellites_param="F,0,0,1,0,0.26458333,0,1 @ F,0,0,1,0,0.26458333,0,1 @ F,0,0,1,0,0.26458333,0,1 @ F,0,0,1,0,0.26458333,0,1 @ F,0,0,1,0,0.26458333,0,1 @ F,0,0,1,0,0.26458333,0,1 @ F,0,0,1,0,0.26458333,0,1 @ F,0,0,1,0,0.26458333,0,1 @ F,0,0,1,0,0.26458333,0,1 @ F,0,0,1,0,0.26458333,0,1 @ F,0,0,1,0,0.26458333,0,1 @ F,0,0,1,0,0.26458333,0,1 @ F,0,0,1,0,0.26458333,0,1 @ F,0,0,1,0,0.26458333,0,1 | F,0,0,1,0,0.26458333,0,1 @ F,0,0,1,0,0.26458333,0,1 @ F,0,0,1,0,0.26458333,0,1 @ F,0,0,1,0,0.26458333,0,1 @ F,0,0,1,0,0.26458333,0,1 @ F,0,0,1,0,0.26458333,0,1 @ F,0,0,1,0,0.26458333,0,1 @ F,0,0,1,0,0.26458333,0,1" />
    <inkscape:path-effect
       effect="fillet_chamfer"
       id="path-effect7554-5-2-4-6"
       is_visible="true"
       lpeversion="1"
       satellites_param="F,0,0,1,0,0.26458333,0,1 @ F,0,0,1,0,0.26458333,0,1 @ F,0,0,1,0,0.26458333,0,1 @ F,0,0,1,0,0.26458333,0,1 @ F,0,0,1,0,0.26458333,0,1 @ F,0,0,1,0,0.26458333,0,1 @ F,0,0,1,0,0.26458333,0,1 @ F,0,0,1,0,0.26458333,0,1 @ F,0,0,1,0,0.26458333,0,1 @ F,0,0,1,0,0.26458333,0,1 @ F,0,0,1,0,0.26458333,0,1 @ F,0,0,1,0,0.26458333,0,1 @ F,0,0,1,0,0.26458333,0,1 @ F,0,0,1,0,0.26458333,0,1 @ F,0,0,1,0,0.26458333,0,1 @ F,0,0,1,0,0.26458333,0,1"
       unit="px"
       method="auto"
       mode="F"
       radius="1"
       chamfer_steps="1"
       flexible="false"
       use_knot_distance="true"
       apply_no_radius="true"
       apply_with_radius="true"
       only_selected="false"
       hide_knots="false"
       nodesatellites_param="F,0,0,1,0,0.26458333,0,1 @ F,0,0,1,0,0.26458333,0,1 @ F,0,0,1,0,0.26458333,0,1 @ F,0,0,1,0,0.26458333,0,1 @ F,0,0,1,0,0.26458333,0,1 @ F,0,0,1,0,0.26458333,0,1 @ F,0,0,1,0,0.26458333,0,1 @ F,0,0,1,0,0.26458333,0,1 @ F,0,0,1,0,0.26458333,0,1 @ F,0,0,1,0,0.26458333,0,1 @ F,0,0,1,0,0.26458333,0,1 @ F,0,0,1,0,0.26458333,0,1 @ F,0,0,1,0,0.26458333,0,1 @ F,0,0,1,0,0.26458333,0,1 @ F,0,0,1,0,0.26458333,0,1 @ F,0,0,1,0,0.26458333,0,1" />
    <inkscape:path-effect
       effect="fillet_chamfer"
       id="path-effect13666-1-5-6-3"
       is_visible="true"
       lpeversion="1"
       satellites_param="F,0,0,1,0,0.26458333,0,1 @ F,0,0,1,0,0.26458333,0,1 @ F,0,0,1,0,0.26458333,0,1 @ F,0,0,1,0,0.26458333,0,1 @ F,0,0,1,0,0.26458333,0,1 @ F,0,0,1,0,0.26458333,0,1 @ F,0,0,1,0,0.26458333,0,1 @ F,0,0,1,0,0.26458333,0,1 @ F,0,0,1,0,0.26458333,0,1 @ F,0,0,1,0,0.26458333,0,1 @ F,0,0,1,0,0.26458333,0,1 @ F,0,0,1,0,0.26458333,0,1 @ F,0,0,1,0,0.26458333,0,1 @ F,0,0,1,0,0.26458333,0,1 @ F,0,0,1,0,0.26458333,0,1 @ F,0,0,1,0,0.26458333,0,1"
       unit="px"
       method="auto"
       mode="F"
       radius="1"
       chamfer_steps="1"
       flexible="false"
       use_knot_distance="true"
       apply_no_radius="true"
       apply_with_radius="true"
       only_selected="false"
       hide_knots="false"
       nodesatellites_param="F,0,0,1,0,0.26458333,0,1 @ F,0,0,1,0,0.26458333,0,1 @ F,0,0,1,0,0.26458333,0,1 @ F,0,0,1,0,0.26458333,0,1 @ F,0,0,1,0,0.26458333,0,1 @ F,0,0,1,0,0.26458333,0,1 @ F,0,0,1,0,0.26458333,0,1 @ F,0,0,1,0,0.26458333,0,1 @ F,0,0,1,0,0.26458333,0,1 @ F,0,0,1,0,0.26458333,0,1 @ F,0,0,1,0,0.26458333,0,1 @ F,0,0,1,0,0.26458333,0,1 @ F,0,0,1,0,0.26458333,0,1 @ F,0,0,1,0,0.26458333,0,1 @ F,0,0,1,0,0.26458333,0,1 @ F,0,0,1,0,0.26458333,0,1" />
    <inkscape:path-effect
       effect="fillet_chamfer"
       id="path-effect1097-3"
       is_visible="true"
       lpeversion="1"
       nodesatellites_param="F,0,0,1,0,1.3229167,0,1 @ F,0,0,1,0,1.3229167,0,1 @ F,0,0,1,0,1.3229167,0,1 @ F,0,0,1,0,1.3229167,0,1 | F,0,0,1,0,1.3229167,0,1 @ F,0,0,1,0,1.3229167,0,1 @ F,0,0,1,0,1.3229167,0,1 @ F,0,0,1,0,1.3229167,0,1"
       unit="px"
       method="auto"
       mode="F"
       radius="5"
       chamfer_steps="1"
       flexible="false"
       use_knot_distance="true"
       apply_no_radius="true"
       apply_with_radius="true"
       only_selected="false"
       hide_knots="false" />
  </defs>
  <g
     inkscape:label="Layer 1"
     inkscape:groupmode="layer"
     id="layer1">
    <g
       id="g2257"
       transform="matrix(1.6986626,0,0,1.6986626,3.0021846,-75.952434)">
      <rect
         style="fill:#ffd5d5;fill-rule:evenodd;stroke:none;stroke-width:0.499999;stroke-linecap:round;stroke-linejoin:round;paint-order:fill markers stroke"
         id="rect61"
         width="102.15569"
         height="102.15569"
         x="34.576488"
         y="55.448414" />
      <rect
         style="fill:#fff9ec;fill-opacity:1;fill-rule:evenodd;stroke:none;stroke-width:0.353553;stroke-linecap:round;stroke-linejoin:round;paint-order:fill markers stroke"
         id="rect61-6"
         width="102.15569"
         height="51.077999"
         x="34.576492"
         y="55.448418" />
      <rect
         style="fill:#fb6376;fill-opacity:1;fill-rule:evenodd;stroke:none;stroke-width:0.353553;stroke-linecap:round;stroke-linejoin:round;paint-order:fill markers stroke"
         id="rect61-6-2"
         width="102.15569"
         height="51.077999"
         x="34.576485"
         y="106.52641" />
      <path
         id="rect61-6-9-1-2-2"
         style="fill:#fff9ec;fill-opacity:1;fill-rule:evenodd;stroke:none;stroke-width:0.184222;stroke-linecap:round;stroke-linejoin:round;paint-order:fill markers stroke"
         d="m 36.236494,110.33943 v 43.45196 a 1.3229167,1.3229167 45 0 0 1.322917,1.32292 h 11.012988 a 1.3229167,1.3229167 135 0 0 1.322917,-1.32292 l 0,-3.77805 a 1.3229167,1.3229167 135 0 1 1.322917,-1.32292 h 0.768534 a 1.3229167,1.3229167 45 0 1 1.322917,1.32292 v 3.77805 a 1.3229167,1.3229167 45 0 0 1.322917,1.32292 h 11.012988 a 1.3229167,1.3229167 135 0 0 1.322917,-1.32292 v -43.45196 a 1.3229167,1.3229167 45 0 0 -1.322917,-1.32292 l -28.086178,0 a 1.3229167,1.3229167 135 0 0 -1.322917,1.32292 z m 14.981739,7.12741 h 0.768534 a 1.3229167,1.3229167 45 0 1 1.322917,1.32292 l 0,19.13402 a 1.3229167,1.3229167 135 0 1 -1.322917,1.32292 h -0.768534 a 1.3229167,1.3229167 45 0 1 -1.322917,-1.32292 v -19.13402 a 1.3229167,1.3229167 135 0 1 1.322917,-1.32292 z"
         inkscape:path-effect="#path-effect1361"
         inkscape:original-d="m 36.236494,109.01651 v 46.0978 h 13.658822 v -6.42389 h 3.414368 v 6.42389 h 13.658822 v -46.0978 z m 13.658822,8.45033 h 3.414368 v 21.77986 h -3.414368 z" />
      <path
         id="rect61-6-9-1-2-0-2"
         style="fill:#fff9ec;fill-opacity:1;fill-rule:evenodd;stroke:none;stroke-width:0.184222;stroke-linecap:round;stroke-linejoin:round;paint-order:fill markers stroke"
         d="m 70.288556,110.33943 v 43.45196 a 1.3229167,1.3229167 45 0 0 1.322917,1.32292 h 28.08619 a 1.3229167,1.3229167 135 0 0 1.322917,-1.32292 l 0,-17.84216 a 1.3229167,1.3229167 45 0 0 -1.322917,-1.32292 H 86.977248 a 1.3229167,1.3229167 45 0 1 -1.322917,-1.32292 l 0,-2.47595 a 1.3229167,1.3229167 135 0 1 1.322917,-1.32292 h 12.720415 a 1.3229167,1.3229167 135 0 0 1.322917,-1.32292 v -17.84217 a 1.3229167,1.3229167 45 0 0 -1.322917,-1.32292 l -28.08619,0 a 1.3229167,1.3229167 135 0 0 -1.322917,1.32292 z"
         inkscape:path-effect="#path-effect1408"
         inkscape:original-d="m 70.288556,109.01651 v 46.0978 h 30.732024 v -20.488 H 85.654331 v -5.12179 h 15.366249 v -20.48801 z" />
      <path
         id="rect61-6-9-1-26-7"
         style="fill:#fff9ec;fill-opacity:1;fill-rule:evenodd;stroke:none;stroke-width:0.184222;stroke-linecap:round;stroke-linejoin:round;paint-order:fill markers stroke"
         d="m 104.34018,110.33912 0,43.45196 a 1.3229167,1.3229167 45 0 0 1.32292,1.32292 h 28.08618 a 1.3229167,1.3229167 135 0 0 1.32292,-1.32292 l 0,-43.45196 a 1.3229167,1.3229167 45 0 0 -1.32292,-1.32292 H 105.6631 a 1.3229167,1.3229167 135 0 0 -1.32292,1.32292 z m 14.98174,19.16509 h 0.76853 a 1.3229167,1.3229167 45 0 1 1.32292,1.32292 l 0,2.47594 a 1.3229167,1.3229167 135 0 1 -1.32292,1.32292 h -0.76853 a 1.3229167,1.3229167 45 0 1 -1.32292,-1.32292 l 0,-2.47594 a 1.3229167,1.3229167 135 0 1 1.32292,-1.32292 z"
         inkscape:path-effect="#path-effect1097-3"
         inkscape:original-d="m 104.34018,109.0162 v 46.0978 h 30.73202 v -46.0978 z m 13.65882,20.48801 h 3.41437 v 5.12178 H 117.999 Z" />
      <path
         id="rect61-6-9"
         style="fill:#fb6376;fill-opacity:1;fill-rule:evenodd;stroke:none;stroke-width:0.184222;stroke-linecap:round;stroke-linejoin:round;paint-order:fill markers stroke"
         d="M 36.236934,59.261437 V 102.7134 a 1.3229167,1.3229167 45 0 0 1.322917,1.32292 h 2.73945 a 1.3229167,1.3229167 135 0 0 1.322917,-1.32292 v -6.075894 a 1.3229167,1.3229167 135 0 1 1.322917,-1.322917 h 0.768992 a 1.3229167,1.3229167 45 0 1 1.322917,1.322917 v 6.075894 a 1.3229167,1.3229167 45 0 0 1.322917,1.32292 h 9.839585 a 1.3229167,1.3229167 135 0 0 1.322917,-1.32292 v -6.075894 a 1.3229167,1.3229167 135 0 1 1.322917,-1.322917 h 0.768536 a 1.3229167,1.3229167 45 0 1 1.322917,1.322917 l 0,6.075894 a 1.3229167,1.3229167 45 0 0 1.322917,1.32292 h 3.385839 a 1.3229167,1.3229167 135 0 0 1.322917,-1.32292 V 59.261437 A 1.3229167,1.3229167 45 0 0 65.645589,57.93852 H 54.63305 a 1.3229167,1.3229167 135 0 0 -1.322917,1.322917 l 0,6.07592 a 1.3229167,1.3229167 135 0 1 -1.322917,1.322917 l -0.768992,0 a 1.3229167,1.3229167 45 0 1 -1.322917,-1.322917 v -6.07592 A 1.3229167,1.3229167 45 0 0 48.57239,57.93852 H 37.559851 a 1.3229167,1.3229167 135 0 0 -1.322917,1.322917 z"
         inkscape:path-effect="#path-effect958"
         inkscape:original-d="m 36.236934,57.93852 v 46.0978 h 5.385284 v -8.721731 h 3.414826 v 8.721731 h 12.485419 v -8.721731 h 3.41437 v 8.721731 h 6.031673 V 57.93852 H 53.310133 v 8.721754 H 49.895307 V 57.93852 Z" />
      <path
         id="rect61-6-9-1-26"
         style="fill:#fb6376;fill-opacity:1;fill-rule:evenodd;stroke:none;stroke-width:0.184222;stroke-linecap:round;stroke-linejoin:round;paint-order:fill markers stroke"
         d="M 70.288326,59.261433 V 102.7134 a 1.3229167,1.3229167 45 0 0 1.322917,1.32292 h 28.08619 a 1.3229167,1.3229167 135 0 0 1.322917,-1.32292 V 59.261433 a 1.3229167,1.3229167 45 0 0 -1.322917,-1.322917 h -28.08619 a 1.3229167,1.3229167 135 0 0 -1.322917,1.322917 z m 14.981753,19.165105 h 0.768526 a 1.3229167,1.3229167 45 0 1 1.322917,1.322917 v 2.475938 a 1.3229167,1.3229167 135 0 1 -1.322917,1.322917 h -0.768526 a 1.3229167,1.3229167 45 0 1 -1.322917,-1.322917 v -2.475938 a 1.3229167,1.3229167 135 0 1 1.322917,-1.322917 z"
         inkscape:path-effect="#path-effect1097"
         inkscape:original-d="M 70.288326,57.938516 V 104.03632 H 101.02035 V 57.938516 Z m 13.658836,20.488022 h 3.41436 v 5.121772 h -3.41436 z" />
      <path
         id="rect61-6-9-1-3"
         style="fill:#fb6376;fill-opacity:1;fill-rule:evenodd;stroke:none;stroke-width:0.184222;stroke-linecap:round;stroke-linejoin:round;paint-order:fill markers stroke"
         d="m 104.34017,59.261433 v 43.451957 a 1.3229167,1.3229167 45 0 0 1.32292,1.32292 l 2.12988,0 a 1.3229167,1.3229167 135 0 0 1.32292,-1.32292 V 68.81287 a 1.3229167,1.3229167 135 0 1 1.32292,-1.322917 h 0.76898 a 1.3229167,1.3229167 45 0 1 1.32292,1.322917 l 0,33.90052 a 1.3229167,1.3229167 45 0 0 1.32292,1.32292 h 19.89566 a 1.3229167,1.3229167 135 0 0 1.32292,-1.32292 V 59.261433 a 1.3229167,1.3229167 45 0 0 -1.32292,-1.322917 l -2.12988,0 a 1.3229167,1.3229167 135 0 0 -1.32292,1.322917 v 33.900553 a 1.3229167,1.3229167 135 0 1 -1.32292,1.322917 h -0.769 a 1.3229167,1.3229167 45 0 1 -1.32292,-1.322917 V 59.261433 a 1.3229167,1.3229167 45 0 0 -1.32292,-1.322917 h -19.89564 a 1.3229167,1.3229167 135 0 0 -1.32292,1.322917 z"
         inkscape:path-effect="#path-effect1050"
         inkscape:original-d="m 104.34017,57.938516 v 46.097794 h 4.77572 V 67.489953 h 3.41482 v 36.546357 h 22.5415 V 57.938516 h -4.77572 v 36.546387 h -3.41484 V 57.938516 Z" />
    </g>
  </g>
</svg>
