<?xml version="1.0" encoding="UTF-8"?>
<!-- Created with Inkscape (http://www.inkscape.org/) -->
<svg width="297mm" height="210mm" version="1.1" viewBox="0 0 297 210" xmlns="http://www.w3.org/2000/svg">
 <g fill-rule="evenodd">
  <g transform="translate(1.1444e-5)">
   <rect x="61.736" y="105" width="173.53" height="86.764" fill="#fb6376" style="paint-order:fill markers stroke"/>
   <g fill="#fff9ec">
    <path d="m64.556 110.55v75.659a1.3229 1.3229 45 0 0 1.3229 1.3229h20.556a1.3229 1.3229 135 0 0 1.3229-1.3229v-8.2662a1.3229 1.3229 135 0 1 1.3229-1.3229h3.154a1.3229 1.3229 45 0 1 1.3229 1.3229v8.2662a1.3229 1.3229 45 0 0 1.3229 1.3229h20.556a1.3229 1.3229 135 0 0 1.3229-1.3229v-75.659a1.3229 1.3229 45 0 0-1.3229-1.3229h-49.557a1.3229 1.3229 135 0 0-1.3229 1.3229zm24.525 13.031h3.154a1.3229 1.3229 45 0 1 1.3229 1.3229v34.351a1.3229 1.3229 135 0 1-1.3229 1.3229h-3.154a1.3229 1.3229 45 0 1-1.3229-1.3229v-34.351a1.3229 1.3229 135 0 1 1.3229-1.3229z" style="paint-order:fill markers stroke"/>
    <path d="m122.4 110.55v75.659a1.3229 1.3229 45 0 0 1.3229 1.3229h49.558a1.3229 1.3229 135 0 0 1.3229-1.3229v-32.156a1.3229 1.3229 45 0 0-1.3229-1.3229h-23.456a1.3229 1.3229 45 0 1-1.3229-1.3229v-6.0544a1.3229 1.3229 135 0 1 1.3229-1.3229h23.456a1.3229 1.3229 135 0 0 1.3229-1.3229v-32.156a1.3229 1.3229 45 0 0-1.3229-1.3229h-49.558a1.3229 1.3229 135 0 0-1.3229 1.3229z" style="paint-order:fill markers stroke"/>
    <path d="m180.24 110.55v75.659a1.3229 1.3229 45 0 0 1.3229 1.3229h49.557a1.3229 1.3229 135 0 0 1.3229-1.3229v-75.659a1.3229 1.3229 45 0 0-1.3229-1.3229h-49.557a1.3229 1.3229 135 0 0-1.3229 1.3229zm24.525 33.479h3.154a1.3229 1.3229 45 0 1 1.3229 1.3229v6.0543a1.3229 1.3229 135 0 1-1.3229 1.3229h-3.154a1.3229 1.3229 45 0 1-1.3229-1.3229v-6.0543a1.3229 1.3229 135 0 1 1.3229-1.3229z" style="paint-order:fill markers stroke"/>
   </g>
  </g>
  <rect x="61.736" y="18.236" width="173.53" height="86.764" fill="#fff9ec" style="paint-order:fill markers stroke"/>
  <g fill="#fb6376">
   <path d="m64.557 23.788v75.659a1.3229 1.3229 45 0 0 1.3229 1.3229h6.5019a1.3229 1.3229 135 0 0 1.3229-1.3229v-12.169a1.3229 1.3229 135 0 1 1.3229-1.3229h3.1548a1.3229 1.3229 45 0 1 1.3229 1.3229v12.169a1.3229 1.3229 45 0 0 1.3229 1.3229h18.563a1.3229 1.3229 135 0 0 1.3229-1.3229v-12.169a1.3229 1.3229 135 0 1 1.3229-1.3229h3.154a1.3229 1.3229 45 0 1 1.3229 1.3229v12.169a1.3229 1.3229 45 0 0 1.3229 1.3229h7.5999a1.3229 1.3229 135 0 0 1.3229-1.3229v-75.659a1.3229 1.3229 45 0 0-1.3229-1.3229h-20.555a1.3229 1.3229 135 0 0-1.3229 1.3229v12.169a1.3229 1.3229 135 0 1-1.3229 1.3229h-3.1548a1.3229 1.3229 45 0 1-1.3229-1.3229v-12.169a1.3229 1.3229 45 0 0-1.3229-1.3229h-20.555a1.3229 1.3229 135 0 0-1.3229 1.3229z" style="paint-order:fill markers stroke"/>
   <path d="m122.4 23.788v75.659a1.3229 1.3229 45 0 0 1.3229 1.3229h49.557a1.3229 1.3229 135 0 0 1.3229-1.3229v-75.659a1.3229 1.3229 45 0 0-1.3229-1.3229h-49.557a1.3229 1.3229 135 0 0-1.3229 1.3229zm24.525 33.479h3.154a1.3229 1.3229 45 0 1 1.3229 1.3229v6.0543a1.3229 1.3229 135 0 1-1.3229 1.3229h-3.154a1.3229 1.3229 45 0 1-1.3229-1.3229v-6.0543a1.3229 1.3229 135 0 1 1.3229-1.3229z" style="paint-order:fill markers stroke"/>
   <path d="m180.24 23.788v75.659a1.3229 1.3229 45 0 0 1.3229 1.3229h5.4665a1.3229 1.3229 135 0 0 1.3229-1.3229v-59.434a1.3229 1.3229 135 0 1 1.3229-1.3229h3.1548a1.3229 1.3229 45 0 1 1.3229 1.3229v59.434a1.3229 1.3229 45 0 0 1.3229 1.3229h35.645a1.3229 1.3229 135 0 0 1.3229-1.3229v-75.659a1.3229 1.3229 45 0 0-1.3229-1.3229h-5.4665a1.3229 1.3229 135 0 0-1.3229 1.3229v59.434a1.3229 1.3229 135 0 1-1.3229 1.3229h-3.1548a1.3229 1.3229 45 0 1-1.3229-1.3229v-59.434a1.3229 1.3229 45 0 0-1.3229-1.3229h-35.645a1.3229 1.3229 135 0 0-1.3229 1.3229z" style="paint-order:fill markers stroke"/>
  </g>
 </g>
</svg>
